<svg width="18" height="16" viewBox="0 0 18 16" fill="none" xmlns="http://www.w3.org/2000/svg">
<path d="M17.497 9.56L15.2434 10.056L13.309 9.152V6.848L15.2434 5.944L17.497 6.44L18 4.896L16.288 4.52L16.7329 3.104L14.8662 2.688L14.2665 4.552L12.3321 5.456L9.96239 4.304V2.496L11.6163 1.128L10.2429 0L8.99516 1.032L7.74745 0L6.37399 1.128L8.02794 2.496V4.304L5.60989 5.456L3.67544 4.552L3.11445 2.688L1.25739 3.104L1.71198 4.52L0 4.896L0.502955 6.44L2.75658 5.944L4.69103 6.848V9.16L2.75658 10.064L0.502955 9.568L0 11.112L1.71198 11.488L1.25739 12.896L3.12413 13.312L3.7238 11.448L5.65825 10.544L8.02794 11.696V13.504L6.37399 14.872L7.74745 16L8.99516 14.968L10.2429 16L11.6067 14.872L9.96239 13.504V11.696L12.3804 10.536L14.3149 11.44L14.9146 13.304L16.7329 12.896L16.2783 11.48L17.9903 11.104L17.497 9.56ZM6.57711 6.848L8.99516 5.688L11.4132 6.848V9.152L8.99516 10.312L6.57711 9.152V6.848Z" fill="#F0572D"/>
</svg>
