<svg width="78" height="74" viewBox="0 0 78 74" fill="none" xmlns="http://www.w3.org/2000/svg">
<path d="M69.3491 27.1534L78 36.9823L69.3491 46.8113L70.5545 59.8223L57.7555 62.7215L51.0545 73.9646L39 68.8027L26.9455 74L20.2445 62.7568L7.44545 59.8576L8.65091 46.8113L0 36.9823L8.65091 27.118L7.44545 14.107L20.2445 11.2432L26.9455 0L39 5.16197L51.0545 0L57.7555 11.2432L70.5545 14.1424L69.3491 27.1534Z" fill="#31363F"/>
<path d="M50.52 53L39 41.48L33.24 47.24L27.48 53L23 48.52L34.52 37L23 25.48L27.48 21L39 32.52L50.52 21L55 25.48L43.48 37L49.24 42.76L55 48.52L50.52 53Z" fill="white"/>
</svg>
