<svg width="31" height="28" viewBox="0 0 31 28" fill="none" xmlns="http://www.w3.org/2000/svg">
<g filter="url(#filter0_d_7192_17516)">
<path d="M15.2632 24L13.3328 22.2813C11.1327 20.3171 9.53447 18.8644 8.53818 17.9233C7.54188 16.9821 6.42105 15.8159 5.17569 14.4246C3.97183 13.0332 3.14159 11.7852 2.68495 10.6803C2.22832 9.53453 2 8.36829 2 7.18159C2 5.17647 2.68495 3.47826 4.05486 2.08696C5.46627 0.695652 7.20979 0 9.2854 0C11.6931 0 13.6857 0.920716 15.2632 2.76215C16.8406 0.920716 18.8332 0 21.2409 0C23.3165 0 25.0393 0.695652 26.4092 2.08696C27.8206 3.47826 28.5263 5.17647 28.5263 7.18159C28.5263 8.77749 27.9867 10.4348 26.9073 12.1535C25.828 13.8721 24.6449 15.3657 23.358 16.6343C22.1127 17.9028 20.0578 19.8056 17.1935 22.3427L15.2632 24Z" fill="#F0572D"/>
</g>
<defs>
<filter id="filter0_d_7192_17516" x="0" y="0" width="30.5264" height="28" filterUnits="userSpaceOnUse" color-interpolation-filters="sRGB">
<feFlood flood-opacity="0" result="BackgroundImageFix"/>
<feColorMatrix in="SourceAlpha" type="matrix" values="0 0 0 0 0 0 0 0 0 0 0 0 0 0 0 0 0 0 127 0" result="hardAlpha"/>
<feOffset dy="2"/>
<feGaussianBlur stdDeviation="1"/>
<feColorMatrix type="matrix" values="0 0 0 0 0 0 0 0 0 0 0 0 0 0 0 0 0 0 0.1 0"/>
<feBlend mode="normal" in2="BackgroundImageFix" result="effect1_dropShadow_7192_17516"/>
<feBlend mode="normal" in="SourceGraphic" in2="effect1_dropShadow_7192_17516" result="shape"/>
</filter>
</defs>
</svg>
