<svg width="18" height="16" viewBox="0 0 18 16" fill="none" xmlns="http://www.w3.org/2000/svg">
<path d="M5.72839 0.0133603C6.78606 -0.137623 7.90648 1.00807 8.22915 2.58895C8.55183 4.16095 7.96922 5.5642 6.91155 5.72407C5.86284 5.88393 4.73346 4.73824 4.40182 3.15736C4.07017 1.58536 4.67072 0.182106 5.72839 0.0133603ZM12.1372 0.0133603C13.2038 0.182106 13.7954 1.58536 13.4817 3.15736C13.1411 4.73824 12.0206 5.88393 10.963 5.72407C9.89633 5.5642 9.31372 4.16095 9.64536 2.58895C9.96804 1.00807 11.0885 -0.137623 12.1372 0.0133603ZM0.933012 4.09878C1.95483 3.66359 3.34415 4.45403 4.07017 5.83064C4.75139 7.23389 4.51834 8.7082 3.50548 9.14338C2.49263 9.57857 1.11228 8.79701 0.404176 7.40264C-0.303926 6.00827 -0.0529535 4.52508 0.933012 4.09878ZM17.067 4.09878C18.053 4.52508 18.3039 6.00827 17.5958 7.40264C16.8877 8.79701 15.5074 9.57857 14.4945 9.14338C13.4817 8.7082 13.2486 7.23389 13.9298 5.83064C14.6559 4.45403 16.0452 3.66359 17.067 4.09878ZM15.5701 13.6729C15.606 14.5077 14.9606 15.4314 14.1898 15.7777C12.5853 16.506 10.6851 14.9962 8.9014 14.9962C7.1177 14.9962 5.19955 16.5682 3.62201 15.7777C2.72568 15.3426 2.10721 14.188 2.22373 13.2288C2.38507 11.9055 3.9895 11.195 4.93962 10.2269C6.20344 8.97464 7.09978 6.62108 8.9014 6.62108C10.6941 6.62108 11.6442 8.93911 12.8542 10.2269C13.8492 11.3104 15.5074 12.2252 15.5701 13.6729Z" fill="#F0572D"/>
</svg>
