<svg width="18" height="8" viewBox="0 0 18 8" fill="none" xmlns="http://www.w3.org/2000/svg">
<path d="M13.2098 3.81402C14.1455 3.91138 14.9927 3.31598 15.1022 2.48413C15.2116 1.65252 14.5419 0.899373 13.6061 0.802082C12.6704 0.704725 11.8231 1.30012 11.7139 2.13191C11.6042 2.96369 12.2741 3.71673 13.2098 3.81402Z" fill="#F0572D"/>
<path d="M5.78055 2.58095L8.3179 2.13056L8.86352 2.91057L6.8867 4.58147C7.19194 4.65003 7.48509 4.75209 7.7576 4.88561C7.8883 4.94964 8.0108 5.02362 8.12922 5.09509C8.31999 5.21026 8.49951 5.3211 8.67743 5.36452C8.81813 5.39886 9.00251 5.40081 9.01422 5.40142C9.26483 5.3995 9.48563 5.33752 9.711 5.20691C10.2971 4.86719 11.0166 4.51527 11.9089 4.48043C11.9747 4.47786 12.0413 4.47654 12.1067 4.47654C12.3929 4.47654 12.6728 4.50155 12.9405 4.55001C12.7569 4.28943 9.48544 0.765589 9.48544 0.765589L9.39922 0.673909C9.18811 0.450874 8.83482 0.357572 8.50909 0.463682L5.42829 1.46811C5.13126 1.56466 4.94942 1.84176 5.01322 2.12596C5.08378 2.4399 5.42734 2.6436 5.78055 2.58095Z" fill="#F0572D"/>
<path d="M16.9959 6.08442C16.5759 6.2518 16.2628 6.32006 15.9152 6.32006C15.7782 6.32006 15.6366 6.30918 15.482 6.28667C14.9673 6.2051 14.6005 5.9409 14.2456 5.6854C14.0274 5.52826 13.8213 5.3798 13.5828 5.27052C13.1512 5.07165 12.6322 4.96658 12.0814 4.96658C12.0243 4.96658 11.9662 4.96777 11.9087 4.97003C11.1557 4.9994 10.545 5.29721 9.99719 5.61467C9.67583 5.801 9.29463 5.89042 8.94868 5.89042C8.84436 5.89042 8.63199 5.87007 8.49418 5.83473C8.2297 5.76694 8.00292 5.62997 7.7836 5.49764C7.67096 5.42958 7.56455 5.36537 7.45703 5.31269C6.99668 5.08709 6.46509 4.96783 5.91977 4.96783H5.90871C5.14525 4.97006 4.45478 5.1782 3.91205 5.56959C3.1563 6.11477 2.65755 6.26795 2.51537 6.28955C2.51537 6.28955 2.39611 6.31726 2.14003 6.31726C1.64945 6.31726 1.23947 6.17441 0.827976 6.01535C0.538894 5.9036 0.266462 5.83946 0 5.82077C0.0516654 5.8473 0.101126 5.87501 0.149103 5.90427C0.35797 6.0337 0.529884 6.19104 0.696057 6.34318C0.785017 6.42455 0.868997 6.50146 0.958223 6.57446C1.30756 6.86011 2.02856 7.19777 2.8584 7.19777C3.27948 7.19777 3.68691 7.1164 4.06925 6.95581C4.18174 6.90857 4.29127 6.8523 4.40718 6.79279C4.59951 6.69412 4.79929 6.59466 5.02066 6.5284C5.30001 6.44472 5.73364 6.47243 5.73364 6.47243C6.18323 6.49798 6.51991 6.68682 6.76299 6.84845C7.50357 7.34088 8.20229 7.57328 8.96191 7.57983L9.00061 7.58004C9.52327 7.58004 10.0014 7.49048 10.422 7.31392C10.6178 7.2316 10.8043 7.11055 11.0018 6.9823C11.3727 6.74146 11.7563 6.49237 12.2503 6.47514C12.2797 6.47409 12.3095 6.47355 12.3399 6.47355C12.6104 6.47355 13.0177 6.51532 13.4219 6.71433C13.9085 6.9547 14.4971 7.2003 15.1763 7.2003C15.275 7.2003 15.3757 7.19517 15.4757 7.18513C16.1009 7.12224 16.6293 6.91735 17.0463 6.57618C17.1357 6.50305 17.2199 6.4259 17.309 6.34426C17.4991 6.17022 17.6956 5.99021 17.9438 5.85355C17.9624 5.84324 17.9811 5.83327 18 5.82357C17.7 5.8473 17.3822 5.93043 16.9959 6.08442Z" fill="#F0572D"/>
</svg>
