<svg width="17" height="11" viewBox="0 0 17 11" fill="none" xmlns="http://www.w3.org/2000/svg">
<path d="M16.5129 1.72608C16.5181 1.4896 16.4496 1.25738 16.3167 1.0617C16.1838 0.866021 15.9932 0.716602 15.7714 0.634221C15.5497 0.551839 15.3079 0.540588 15.0795 0.602031C14.851 0.663474 14.6475 0.794558 14.4971 0.977059L8.53158 7.94051L2.5682 0.977059C2.47541 0.850814 2.35761 0.745087 2.22207 0.666499C2.08654 0.587911 1.93619 0.538155 1.78053 0.520346C1.62487 0.502538 1.46724 0.517061 1.31745 0.563006C1.16767 0.60895 1.02894 0.685327 0.910033 0.787353C0.791131 0.88938 0.694681 1.01486 0.626519 1.15593C0.558356 1.297 0.520072 1.45063 0.514032 1.60718C0.507991 1.76374 0.534252 1.91986 0.591342 2.06576C0.648432 2.21167 0.73503 2.34421 0.845717 2.4551L7.667 10.4276C7.77384 10.5528 7.90645 10.6533 8.05591 10.7223C8.20537 10.7912 8.36804 10.8269 8.53263 10.8269C8.69722 10.8269 8.8599 10.7912 9.00936 10.7223C9.15882 10.6533 9.29156 10.5528 9.3984 10.4276L16.2262 2.4551C16.4051 2.2537 16.5068 1.99538 16.5132 1.72608L16.5129 1.72608Z" fill="#F0572D"/>
</svg>
