<svg width="18" height="16" viewBox="0 0 18 16" fill="none" xmlns="http://www.w3.org/2000/svg">
<path d="M5.544 0L4.275 1.25333L6.606 3.55556H1.8C0.801 3.55556 0 4.34667 0 5.33333V14.2222C0 15.2089 0.801 16 1.8 16H16.2C17.199 16 18 15.2089 18 14.2222V5.33333C18 4.34667 17.199 3.55556 16.2 3.55556H11.394L13.725 1.25333L12.456 0L9 3.41333L5.544 0ZM1.8 5.33333H13.5V14.2222H1.8V5.33333ZM15.75 5.33333C15.9887 5.33333 16.2176 5.42698 16.3864 5.59368C16.5552 5.76038 16.65 5.98647 16.65 6.22222C16.65 6.45797 16.5552 6.68406 16.3864 6.85076C16.2176 7.01746 15.9887 7.11111 15.75 7.11111C15.5113 7.11111 15.2824 7.01746 15.1136 6.85076C14.9448 6.68406 14.85 6.45797 14.85 6.22222C14.85 5.98647 14.9448 5.76038 15.1136 5.59368C15.2824 5.42698 15.5113 5.33333 15.75 5.33333ZM15.75 8C15.9887 8 16.2176 8.09365 16.3864 8.26035C16.5552 8.42705 16.65 8.65314 16.65 8.88889C16.65 9.12464 16.5552 9.35073 16.3864 9.51743C16.2176 9.68413 15.9887 9.77778 15.75 9.77778C15.5113 9.77778 15.2824 9.68413 15.1136 9.51743C14.9448 9.35073 14.85 9.12464 14.85 8.88889C14.85 8.65314 14.9448 8.42705 15.1136 8.26035C15.2824 8.09365 15.5113 8 15.75 8Z" fill="#F0572D"/>
</svg>
