<svg width="18" height="16" viewBox="0 0 18 16" fill="none" xmlns="http://www.w3.org/2000/svg">
<path d="M9 16L12 11.7333C11.1667 11.0667 10.125 10.6667 9 10.6667C7.875 10.6667 6.83333 11.0667 6 11.7333L9 16ZM9 0C5.625 0 2.50833 1.19111 0 3.2L1.5 5.33333C3.58333 3.66222 6.18333 2.66667 9 2.66667C11.8167 2.66667 14.4167 3.66222 16.5 5.33333L18 3.2C15.4917 1.19111 12.375 0 9 0ZM9 5.33333C6.75 5.33333 4.675 6.12444 3 7.46667L4.5 9.6C5.75 8.59556 7.30833 8 9 8C10.6917 8 12.25 8.59556 13.5 9.6L15 7.46667C13.325 6.12444 11.25 5.33333 9 5.33333Z" fill="#F0572D"/>
</svg>
