<svg width="71" height="52" viewBox="0 0 71 52" fill="none" xmlns="http://www.w3.org/2000/svg">
<path d="M67.7248 0H3.27521C1.46636 0 0 1.438 0 3.21186V48.7881C0 50.562 1.46636 52 3.27521 52H67.7248C69.5336 52 71 50.562 71 48.7881V3.21186C71 1.438 69.5336 0 67.7248 0Z" fill="#191B1D"/>
<path d="M47.4047 35.8379C46.3553 35.8369 45.3072 35.7682 44.267 35.6324C43.2954 35.5166 42.3451 35.268 41.4438 34.8937C40.6565 34.5764 39.9645 34.068 39.4328 33.4162C38.9051 32.7082 38.6394 31.8449 38.6795 30.9688V9.72552H44.1753V19.9071L43.1207 18.1727C43.5971 17.6413 44.1877 17.2201 44.85 16.9394C45.5335 16.6375 46.2532 16.4217 46.992 16.297C47.5884 16.1867 48.1931 16.1244 48.7999 16.1107C51.6078 16.1107 53.7455 16.9415 55.2128 18.6031C56.6801 20.2647 57.4137 22.6929 57.4137 25.8876C57.4588 27.4933 57.2035 29.0936 56.6604 30.609C56.2274 31.7846 55.5051 32.8371 54.5577 33.6731C53.6374 34.4429 52.558 35.0083 51.3939 35.3305C50.0956 35.6853 48.7523 35.8562 47.4047 35.8379ZM47.3326 31.2643C48.2515 31.3082 49.1631 31.0847 49.9528 30.6219C50.6039 30.1886 51.0972 29.563 51.3611 28.8361C51.6624 27.9945 51.8088 27.1071 51.7934 26.2152C51.8414 25.0694 51.6497 23.926 51.2301 22.8556C50.9297 22.1064 50.3896 21.473 49.6908 21.0505C49.0013 20.6716 48.221 20.4809 47.4309 20.4981C46.8758 20.5028 46.3227 20.563 45.7802 20.678C45.2126 20.7905 44.6666 20.99 44.1622 21.2689V29.5363C44.1487 29.7269 44.1788 29.9181 44.2502 30.0959C44.3215 30.2737 44.4325 30.4336 44.5749 30.5641C44.9032 30.8377 45.2981 31.0236 45.7212 31.1037C46.2502 31.2186 46.7908 31.2746 47.3326 31.2707V31.2643Z" fill="white"/>
<path d="M13.9456 35.2855V10.6827H24.0267C28.2932 10.6827 31.4286 11.7233 33.4331 13.8046C35.4375 15.8859 36.4397 18.9479 36.4397 22.9905C36.4397 27.0246 35.4375 30.0802 33.4331 32.1572C31.4286 34.2342 28.2932 35.2727 24.0267 35.2727L13.9456 35.2855ZM20.0374 30.6797H23.3127C25.5704 30.6797 27.2822 30.0652 28.4482 28.8361C29.6142 27.6028 30.1971 25.6628 30.1971 23.0034C30.1971 20.344 29.6142 18.3398 28.4482 17.1192C27.2822 15.8987 25.5726 15.2821 23.3127 15.2821H20.0374V30.6797Z" fill="white"/>
<path d="M34.1271 40.6492V42.2616H13.5916V40.6364L34.1271 40.6492Z" fill="white"/>
<path d="M54.6625 40.6492V42.2616H34.127V40.6364L54.6625 40.6492Z" fill="white"/>
</svg>
