<svg width="19" height="16" viewBox="0 0 19 16" fill="none" xmlns="http://www.w3.org/2000/svg">
<path d="M2.63477 6L4.13477 1.5H15.1348L16.6348 6H2.63477ZM15.1348 11C14.7369 11 14.3554 10.842 14.0741 10.5607C13.7928 10.2794 13.6348 9.89782 13.6348 9.5C13.6348 9.10218 13.7928 8.72064 14.0741 8.43934C14.3554 8.15804 14.7369 8 15.1348 8C15.5326 8 15.9141 8.15804 16.1954 8.43934C16.4767 8.72064 16.6348 9.10218 16.6348 9.5C16.6348 9.89782 16.4767 10.2794 16.1954 10.5607C15.9141 10.842 15.5326 11 15.1348 11ZM4.13477 11C3.73694 11 3.35541 10.842 3.07411 10.5607C2.7928 10.2794 2.63477 9.89782 2.63477 9.5C2.63477 9.10218 2.7928 8.72064 3.07411 8.43934C3.35541 8.15804 3.73694 8 4.13477 8C4.53259 8 4.91412 8.15804 5.19543 8.43934C5.47673 8.72064 5.63477 9.10218 5.63477 9.5C5.63477 9.89782 5.47673 10.2794 5.19543 10.5607C4.91412 10.842 4.53259 11 4.13477 11ZM16.5548 1C16.3548 0.42 15.7948 0 15.1348 0H4.13477C3.47477 0 2.91477 0.42 2.71477 1L0.634766 7V15C0.634766 15.2652 0.740122 15.5196 0.927659 15.7071C1.1152 15.8946 1.36955 16 1.63477 16H2.63477C2.89998 16 3.15434 15.8946 3.34187 15.7071C3.52941 15.5196 3.63477 15.2652 3.63477 15V14H15.6348V15C15.6348 15.2652 15.7401 15.5196 15.9277 15.7071C16.1152 15.8946 16.3695 16 16.6348 16H17.6348C17.9 16 18.1543 15.8946 18.3419 15.7071C18.5294 15.5196 18.6348 15.2652 18.6348 15V7L16.5548 1Z" fill="#F0572D"/>
</svg>
